# xmcd CD database file
#
# Track frame offsets:
#	150
#	15915
#	32942
#	51275
#	87180
#	106175
#	119040
#	131004
#	149115
#	165650
#	182920
#	206390
#	220192
#	235955
#	264192
#	278627
#
# Disc length: 3943 seconds
#
# Revision: 0
# Processed by: cddbd v1.4b42PL0 Copyright (c) Steve Scherf et al.
# Submitted via: Feurio! 1.61 - http://www.feurio.com
#
DISCID=e70f6510
DTITLE=Memo Gonzales and The Bluescasters - 10.000 Miles
DYEAR=1900
DGENRE=
TTITLE0=I Wanna Ask You Ptretty Baby
TTITLE1=Get Up, Jump Up
TTITLE2=Wanna Bee
TTITLE3=Greyhound
TTITLE4=Who Do You Do?
TTITLE5=She's Dynamite
TTITLE6=Let's Burn
TTITLE7=Louisiana Lover Man
TTITLE8=10.000 Miles
TTITLE9=The Pressure Of The City
TTITLE10=The Love Of Money
TTITLE11=Tell Me What's The Reason
TTITLE12=Shake It, Baby
TTITLE13=She's Leaving
TTITLE14=I've Been Thinking
TTITLE15=Wiggle Toes
EXTD=
EXTT0=
EXTT1=
EXTT2=
EXTT3=
EXTT4=
EXTT5=
EXTT6=
EXTT7=
EXTT8=
EXTT9=
EXTT10=
EXTT11=
EXTT12=
EXTT13=
EXTT14=
EXTT15=
PLAYORDER=
